<svg width="37" height="36" viewBox="0 0 37 36" fill="none" xmlns="http://www.w3.org/2000/svg">
<path d="M18.3115 24.9518C20.234 24.9518 22.0778 24.2015 23.4372 22.8659C24.7967 21.5303 25.5604 19.7189 25.5604 17.8301C25.5604 15.9414 24.7967 14.1299 23.4372 12.7944C22.0778 11.4588 20.234 10.7085 18.3115 10.7085C16.3889 10.7085 14.5451 11.4588 13.1857 12.7944C11.8262 14.1299 11.0625 15.9414 11.0625 17.8301C11.0625 19.7189 11.8262 21.5303 13.1857 22.8659C14.5451 24.2015 16.3889 24.9518 18.3115 24.9518Z" stroke="white" style="stroke:white;stroke-opacity:1;" stroke-width="3.5" stroke-linecap="round" stroke-linejoin="round"/>
<path d="M2 24.952V10.7087C2 8.34772 2.95466 6.08345 4.65396 4.41399C6.35327 2.74453 8.65802 1.80664 11.0612 1.80664H25.5591C27.9623 1.80664 30.267 2.74453 31.9663 4.41399C33.6656 6.08345 34.6203 8.34772 34.6203 10.7087V24.952C34.6203 27.313 33.6656 29.5772 31.9663 31.2467C30.267 32.9161 27.9623 33.854 25.5591 33.854H11.0612C8.65802 33.854 6.35327 32.9161 4.65396 31.2467C2.95466 29.5772 2 27.313 2 24.952Z" stroke="white" style="stroke:white;stroke-opacity:1;" stroke-width="3.5"/>
<path d="M28.2773 8.05655L28.2959 8.03613" stroke="white" style="stroke:white;stroke-opacity:1;" stroke-width="3.5" stroke-linecap="round" stroke-linejoin="round"/>
</svg>
