<svg width="39" height="39" viewBox="0 0 39 39" fill="none" xmlns="http://www.w3.org/2000/svg">
<path d="M12.2627 31.1898C11.6466 31.1898 11.1326 30.9838 10.7207 30.5719C10.3088 30.16 10.1025 29.6461 10.1016 29.03V14.627C10.1016 14.0118 10.308 13.4983 10.7207 13.0864C11.1335 12.6745 11.6475 12.4681 12.2627 12.4672H14.7822V11.7986C14.7822 10.4987 15.2373 9.3936 16.1476 8.48333C17.0579 7.57306 18.163 7.11792 19.4628 7.11792C20.7627 7.11792 21.8678 7.57306 22.7781 8.48333C23.6883 9.3936 24.1435 10.4987 24.1435 11.7986V12.4672H26.6643C27.2795 12.4672 27.793 12.6736 28.2049 13.0864C28.6168 13.4992 28.8232 14.0132 28.8241 14.6283V29.03C28.8241 29.6452 28.6177 30.1591 28.2049 30.5719C27.7921 30.9847 27.2786 31.1907 26.6643 31.1898H12.2627ZM12.2627 29.8524H26.6643C26.8694 29.8524 27.058 29.7669 27.23 29.5957C27.4021 29.4245 27.4877 29.2355 27.4868 29.0287V14.6283C27.4868 14.4224 27.4012 14.2334 27.23 14.0613C27.0588 13.8892 26.8698 13.8037 26.663 13.8045H24.1435V17.1479C24.1435 17.3386 24.0797 17.4978 23.9522 17.6253C23.8247 17.7528 23.6656 17.8165 23.4748 17.8165C23.284 17.8165 23.1249 17.7528 22.9974 17.6253C22.8699 17.4978 22.8061 17.3386 22.8061 17.1479V13.8045H16.1195V17.1479C16.1195 17.3386 16.0558 17.4978 15.9283 17.6253C15.8008 17.7528 15.6417 17.8165 15.4509 17.8165C15.2601 17.8165 15.1009 17.7528 14.9734 17.6253C14.8459 17.4978 14.7822 17.3386 14.7822 17.1479V13.8045H12.2627C12.0567 13.8045 11.8677 13.8901 11.6957 14.0613C11.5236 14.2325 11.438 14.4215 11.4389 14.6283V29.03C11.4389 29.235 11.5245 29.4236 11.6957 29.5957C11.8668 29.7677 12.0554 29.8533 12.2613 29.8524M16.1195 12.4672H22.8061V11.7986C22.8061 10.8571 22.4843 10.0645 21.8406 9.42079C21.1969 8.77709 20.4043 8.45524 19.4628 8.45524C18.5214 8.45524 17.7288 8.77709 17.0851 9.42079C16.4414 10.0645 16.1195 10.8571 16.1195 11.7986V12.4672Z" fill="black" style="fill:black;fill-opacity:1;"/>
<circle cx="19.4625" cy="19.1539" r="18.6539" stroke="black" style="stroke:black;stroke-opacity:1;"/>
</svg>
