<svg width="39" height="39" viewBox="0 0 39 39" fill="none" xmlns="http://www.w3.org/2000/svg">
<g id="icon-language">
<path id="Vector" d="M19.3737 29.7054C17.9215 29.7054 16.5537 29.4279 15.2704 28.873C13.987 28.3173 12.8693 27.5631 11.9174 26.6103C10.9654 25.6575 10.2112 24.5399 9.65466 23.2573C9.09817 21.9747 8.82071 20.6069 8.82227 19.154C8.82227 17.6971 9.09974 16.3281 9.65466 15.0471C10.2104 13.7653 10.9646 12.6488 11.9174 11.6976C12.8701 10.7464 13.9878 9.9922 15.2704 9.43493C16.5537 8.88 17.9215 8.60254 19.3737 8.60254C20.8306 8.60254 22.1995 8.88 23.4805 9.43493C24.7623 9.99064 25.8792 10.7449 26.8312 11.6976C27.7832 12.6504 28.537 13.7669 29.0927 15.0471C29.6477 16.3289 29.9251 17.6979 29.9251 19.154C29.9251 20.6061 29.6477 21.9739 29.0927 23.2573C28.537 24.5407 27.7828 25.6583 26.83 26.6103C25.8773 27.5623 24.7608 28.3165 23.4805 28.873C22.2003 29.4295 20.8314 29.7069 19.3737 29.7054ZM19.3737 28.5424C20.0615 27.6584 20.6289 26.7905 21.076 25.9385C21.5223 25.0866 21.8853 24.1331 22.1651 23.0779H16.5823C16.8925 24.1925 17.263 25.1757 17.6937 26.0276C18.1251 26.8796 18.6851 27.7178 19.3737 28.5424ZM17.8813 28.3665C17.3341 27.7217 16.8347 26.9245 16.383 25.9749C15.9312 25.026 15.5951 24.06 15.3747 23.0767H10.8786C11.5508 24.5344 12.5032 25.7302 13.7357 26.6642C14.9691 27.5974 16.3509 28.1649 17.8813 28.3665ZM20.8661 28.3665C22.3965 28.1649 23.7783 27.5974 25.0117 26.6642C26.2442 25.7302 27.1966 24.5344 27.8688 23.0767H23.3739C23.0769 24.0748 22.7029 25.0483 22.2519 25.9971C21.8001 26.9468 21.3382 27.7373 20.8661 28.3665ZM10.4003 21.9055H15.1308C15.0417 21.4241 14.9792 20.9551 14.9433 20.4987C14.9058 20.043 14.887 19.5948 14.887 19.154C14.887 18.7131 14.9054 18.2649 14.9421 17.8092C14.9788 17.3536 15.0414 16.8846 15.1297 16.4024H10.4015C10.2741 16.8088 10.1744 17.2516 10.1025 17.7307C10.0306 18.209 9.99465 18.6834 9.99465 19.154C9.99465 19.6245 10.0302 20.0993 10.1013 20.5784C10.1725 21.0575 10.2721 21.4995 10.4003 21.9044M16.3032 21.9044H22.4442C22.5333 21.4237 22.5958 20.9626 22.6317 20.521C22.6693 20.0801 22.688 19.6245 22.688 19.154C22.688 18.6834 22.6696 18.2278 22.6329 17.787C22.5962 17.3462 22.5336 16.885 22.4453 16.4036H16.3021C16.2137 16.8842 16.1512 17.3454 16.1145 17.787C16.0777 18.2278 16.0594 18.6834 16.0594 19.154C16.0594 19.6245 16.0777 20.0801 16.1145 20.521C16.1512 20.9618 16.2149 21.4229 16.3032 21.9044ZM23.6177 21.9044H28.3471C28.4745 21.4987 28.5741 21.0567 28.646 20.5784C28.7172 20.0993 28.7527 19.6245 28.7527 19.154C28.7527 18.6834 28.7172 18.2086 28.646 17.7295C28.5749 17.2504 28.4753 16.8084 28.3471 16.4036H23.6165C23.7056 16.8842 23.7682 17.3528 23.8041 17.8092C23.8416 18.2657 23.8604 18.7139 23.8604 19.154C23.8604 19.594 23.842 20.0422 23.8053 20.4987C23.7686 20.9551 23.706 21.4241 23.6177 21.9055M23.3739 15.2312H27.8688C27.1817 13.743 26.2407 12.5472 25.0457 11.6437C23.8506 10.7402 22.4574 10.1653 20.8661 9.91912C21.4132 10.639 21.9053 11.4624 22.3422 12.3893C22.7791 13.3155 23.123 14.2628 23.3739 15.2312ZM16.5823 15.2312H22.1651C21.8556 14.1307 21.4738 13.1357 21.0197 12.2463C20.5656 11.3569 20.0169 10.5299 19.3737 9.76554C18.7304 10.5292 18.1818 11.3561 17.7277 12.2463C17.2736 13.1365 16.891 14.1315 16.5823 15.2312ZM10.8798 15.2312H15.3747C15.6256 14.2636 15.9695 13.3163 16.4064 12.3893C16.8433 11.4624 17.3353 10.639 17.8824 9.91912C16.277 10.1661 14.8804 10.7445 13.6923 11.6542C12.5043 12.5656 11.5664 13.7575 10.8786 15.23" fill="black" style="fill:black;fill-opacity:1;"/>
<circle id="Ellipse 4" cx="19.7692" cy="19.1539" r="18.6539" stroke="black" style="stroke:black;stroke-opacity:1;"/>
</g>
</svg>
