<svg width="39" height="39" viewBox="0 0 39 39" fill="none" xmlns="http://www.w3.org/2000/svg">
<g id="icon-user">
<path id="Vector" d="M33.0554 31.2547C30.7453 27.2507 27.0425 24.517 22.7524 23.5314C24.7909 22.694 26.4763 21.173 27.5204 19.2281C28.5645 17.2832 28.9026 15.0352 28.477 12.8681C28.0514 10.701 26.8884 8.74935 25.1868 7.34652C23.4852 5.94369 21.3505 5.17676 19.1474 5.17676C16.9444 5.17676 14.8097 5.94369 13.1081 7.34652C11.4064 8.74935 10.2435 10.701 9.81784 12.8681C9.39221 15.0352 9.73034 17.2832 10.7745 19.2281C11.8186 21.173 13.5039 22.694 15.5425 23.5314C11.258 24.5128 7.54956 27.2507 5.2395 31.2547C5.17263 31.3828 5.15774 31.5319 5.19793 31.6708C5.23813 31.8097 5.3303 31.9277 5.4552 32.0001C5.5801 32.0725 5.72807 32.0937 5.86819 32.0593C6.00832 32.0248 6.12976 31.9375 6.20715 31.8154C8.93952 27.0755 13.7806 24.245 19.1474 24.245C24.5143 24.245 29.3553 27.0755 32.0877 31.8154C32.1367 31.9006 32.2073 31.9713 32.2922 32.0205C32.3771 32.0698 32.4734 32.0957 32.5715 32.0958C32.6698 32.0961 32.7664 32.07 32.8512 32.0201C32.9794 31.9457 33.0729 31.8232 33.1112 31.6797C33.1495 31.5362 33.1294 31.3833 33.0554 31.2547ZM10.7574 14.7118C10.7574 13.0482 11.2494 11.4219 12.1713 10.0386C13.0933 8.65531 14.4036 7.57717 15.9367 6.94052C17.4698 6.30387 19.1567 6.13729 20.7842 6.46185C22.4118 6.78642 23.9067 7.58754 25.0801 8.76393C26.2535 9.94031 27.0525 11.4391 27.3763 13.0708C27.7 14.7025 27.5339 16.3938 26.8988 17.9308C26.2638 19.4678 25.1884 20.7815 23.8087 21.7058C22.429 22.6301 20.8068 23.1234 19.1474 23.1234C16.923 23.1208 14.7905 22.2338 13.2176 20.6569C11.6447 19.0799 10.76 16.9419 10.7574 14.7118Z" fill="black" style="fill:black;fill-opacity:1;"/>
<circle id="Ellipse 4" cx="19.1539" cy="19.1539" r="18.6539" stroke="black" style="stroke:black;stroke-opacity:1;"/>
</g>
</svg>
