<svg width="29" height="33" viewBox="0 0 29 33" fill="none" xmlns="http://www.w3.org/2000/svg">
<path d="M23.0077 5.91665C21.7434 4.52932 21.0467 2.74764 21.0472 0.90332H15.3323V22.9478C15.2882 24.1407 14.7642 25.2706 13.8707 26.0997C12.9772 26.9287 11.7839 27.392 10.5421 27.3922C7.91582 27.3922 5.73342 25.33 5.73342 22.77C5.73342 19.7122 8.80357 17.4189 11.9662 18.3611V12.7433C5.58546 11.9255 0 16.69 0 22.77C0 28.69 5.10459 32.9033 10.5236 32.9033C16.331 32.9033 21.0472 28.37 21.0472 22.77V11.5878C23.3646 13.1875 26.1469 14.0458 29 14.0411V8.54777C29 8.54777 25.523 8.70777 23.0077 5.91665Z" fill="white" style="fill:white;fill-opacity:1;"/>
</svg>
