<svg width="166" height="31" viewBox="0 0 166 31" fill="none" xmlns="http://www.w3.org/2000/svg">
<path d="M0.0388702 29.4396V0.853516H6.02451V24.2421H16.4022V29.4396H0H0.0388702Z" fill="white" style="fill:white;fill-opacity:1;"/>
<path d="M21.4941 29.4396V0.853516H27.4798V29.4396H21.4941Z" fill="white" style="fill:white;fill-opacity:1;"/>
<path d="M33.1543 15.1657C33.1543 5.85684 38.0905 0 46.0584 0C54.0263 0 56.8248 4.07264 57.7965 10.7052L52.2384 11.7525C51.5388 7.64104 49.2845 5.19746 46.0584 5.19746C42.8324 5.19746 39.1788 8.95981 39.1788 15.1657C39.1788 21.3717 42.1716 25.0564 46.9135 25.0564C51.6554 25.0564 53.5988 22.1474 54.2984 17.4154L59.9342 18.3463C59.0014 25.677 53.9486 30.2927 46.8746 30.2927C39.8007 30.2927 33.1932 24.4746 33.1932 15.1657H33.1543Z" fill="white" style="fill:white;fill-opacity:1;"/>
<path d="M63.0039 10.2783C63.0039 7.5244 64.9862 5.58505 67.7069 5.58505C70.4277 5.58505 72.4099 7.56319 72.4099 10.2783C72.4099 12.9934 70.4277 14.9327 67.7069 14.9327C64.9862 14.9327 63.0039 12.9546 63.0039 10.2783ZM70.3111 10.2783C70.3111 8.76559 69.2228 7.64076 67.7069 7.64076C66.1911 7.64076 65.0639 8.76559 65.0639 10.2783C65.0639 11.791 66.1911 12.877 67.7069 12.877C69.2228 12.877 70.3111 11.791 70.3111 10.2783ZM68.0567 23.078L67.3182 22.5738L79.445 5.39111L80.2224 5.89534L68.0179 23.078H68.0567ZM74.9752 18.4623C74.9752 15.7085 76.9575 13.7691 79.6782 13.7691C82.399 13.7691 84.3812 15.7473 84.3812 18.4623C84.3812 21.1774 82.399 23.1168 79.6782 23.1168C76.9575 23.1168 74.9752 21.1386 74.9752 18.4623ZM82.3212 18.4623C82.3212 16.9497 81.2329 15.8248 79.7171 15.8248C78.2012 15.8248 77.0741 16.9497 77.0741 18.4623C77.0741 19.975 78.1624 21.0611 79.7171 21.0611C81.2718 21.0611 82.3212 19.975 82.3212 18.4623Z" fill="white" style="fill:white;fill-opacity:1;"/>
<path d="M102.883 26.0263L101.639 21.1391C101.212 19.4325 100.046 18.2301 98.4912 18.2301H94.9153V29.4396H88.9297V0.853516H100.668C107.042 0.853516 111.045 4.26678 111.045 9.65818C111.045 15.0496 108.791 16.252 104.904 17.1829C106.381 17.881 107.12 19.1222 107.509 20.7513L108.441 24.5136C108.636 25.4445 109.063 26.0263 109.763 26.0263C110.462 26.0263 110.929 25.6384 111.512 24.8627L112.989 27.8105C111.706 29.2456 109.763 30.0989 107.781 30.0989C105.798 30.0989 103.466 28.4699 102.883 25.9875V26.0263ZM94.9153 13.9635H100.162C103.116 13.9635 105.021 12.3345 105.021 9.73575C105.021 7.13702 103.078 5.43039 100.162 5.43039H94.9153V13.9635Z" fill="white" style="fill:white;fill-opacity:1;"/>
<path d="M117.574 29.4396V0.853516H124.998L135.22 22.264H135.298V0.853516H140.934V29.4396H133.471L123.249 8.10669H123.171V29.4396H117.574Z" fill="white" style="fill:white;fill-opacity:1;"/>
<path d="M147.504 29.4396V0.853516H164.917V5.74068H153.334V12.5672H163.323V16.9114H153.334V24.5524H165.344V29.4008H147.543L147.504 29.4396Z" fill="white" style="fill:white;fill-opacity:1;"/>
</svg>
